<?xml version="1.0" encoding="UTF-8"?>
<svg xmlns="http://www.w3.org/2000/svg" xmlns:xlink="http://www.w3.org/1999/xlink" viewBox="0 0 950.46 1247.88">
  <defs>
    <style>
      .cls-1 {
        fill: url(#radial-gradient-3);
      }

      .cls-1, .cls-2, .cls-3 {
        mix-blend-mode: screen;
      }

      .cls-4 {
        fill: url(#_Áåçûìÿííûé_ãðàäèåíò_124-3);
      }

      .cls-5 {
        fill: #fa0;
        mix-blend-mode: color-burn;
      }

      .cls-5, .cls-6, .cls-7, .cls-8, .cls-9, .cls-10, .cls-11, .cls-12, .cls-13, .cls-14, .cls-15, .cls-16, .cls-17, .cls-18, .cls-19, .cls-20, .cls-21, .cls-22, .cls-23, .cls-24, .cls-25, .cls-26, .cls-27, .cls-28 {
        fill-rule: evenodd;
      }

      .cls-5, .cls-29 {
        opacity: .3;
      }

      .cls-30 {
        fill: url(#linear-gradient-2);
      }

      .cls-30, .cls-2, .cls-3, .cls-27 {
        opacity: .5;
      }

      .cls-30, .cls-31, .cls-32 {
        mix-blend-mode: lighten;
      }

      .cls-33, .cls-10 {
        fill: #fff;
      }

      .cls-6 {
        fill: url(#_Áåçûìÿííûé_ãðàäèåíò_163);
      }

      .cls-6, .cls-34, .cls-7, .cls-9, .cls-35, .cls-13, .cls-18, .cls-20, .cls-36, .cls-22, .cls-25, .cls-27, .cls-37, .cls-38 {
        mix-blend-mode: multiply;
      }

      .cls-34 {
        fill: url(#_Áåçûìÿííûé_ãðàäèåíò_98-2);
      }

      .cls-34, .cls-37, .cls-38 {
        opacity: .91;
      }

      .cls-7 {
        fill: url(#_Áåçûìÿííûé_ãðàäèåíò_6-2);
      }

      .cls-39 {
        fill: #6d3a51;
      }

      .cls-8 {
        fill: #684d73;
      }

      .cls-40, .cls-19 {
        fill: #ff6b22;
      }

      .cls-9 {
        fill: url(#_Áåçûìÿííûé_ãðàäèåíò_6);
      }

      .cls-2 {
        fill: url(#radial-gradient-4);
      }

      .cls-41 {
        fill: #ffebed;
      }

      .cls-42 {
        fill: #f58e6f;
      }

      .cls-11 {
        fill: #dd6668;
      }

      .cls-43 {
        isolation: isolate;
      }

      .cls-12, .cls-27, .cls-44 {
        fill: #53345f;
      }

      .cls-45 {
        fill: url(#_Áåçûìÿííûé_ãðàäèåíò_13-2);
      }

      .cls-46 {
        fill: url(#_Áåçûìÿííûé_ãðàäèåíò_13);
      }

      .cls-3 {
        fill: url(#radial-gradient-5);
      }

      .cls-35 {
        fill: url(#_Áåçûìÿííûé_ãðàäèåíò_98);
      }

      .cls-35, .cls-13, .cls-36 {
        opacity: .6;
      }

      .cls-47 {
        fill: #aeffff;
      }

      .cls-48, .cls-21 {
        fill: #cc5268;
      }

      .cls-49 {
        fill: url(#_Áåçûìÿííûé_ãðàäèåíò_11);
      }

      .cls-13 {
        fill: url(#_Áåçûìÿííûé_ãðàäèåíò_69);
      }

      .cls-50 {
        fill: url(#_Áåçûìÿííûé_ãðàäèåíò_10);
      }

      .cls-29 {
        fill: url(#radial-gradient-2);
      }

      .cls-51 {
        fill: url(#_Áåçûìÿííûé_ãðàäèåíò_213);
      }

      .cls-52 {
        clip-path: url(#clippath-1);
      }

      .cls-14 {
        fill: url(#_Áåçûìÿííûé_ãðàäèåíò_519);
      }

      .cls-15 {
        fill: url(#_Áåçûìÿííûé_ãðàäèåíò_25);
      }

      .cls-16, .cls-53 {
        fill: #cab3da;
      }

      .cls-17 {
        fill: url(#_Áåçûìÿííûé_ãðàäèåíò_436-2);
      }

      .cls-18 {
        fill: url(#_Áåçûìÿííûé_ãðàäèåíò_6-3);
      }

      .cls-54 {
        fill: #8b2e45;
      }

      .cls-20 {
        fill: url(#_Áåçûìÿííûé_ãðàäèåíò_163-2);
      }

      .cls-55 {
        fill: url(#_Áåçûìÿííûé_ãðàäèåíò_93);
      }

      .cls-32 {
        fill: url(#radial-gradient);
      }

      .cls-56 {
        fill: url(#_Áåçûìÿííûé_ãðàäèåíò_124-2);
      }

      .cls-36 {
        fill: url(#_Áåçûìÿííûé_ãðàäèåíò_221);
      }

      .cls-57 {
        fill: url(#_Áåçûìÿííûé_ãðàäèåíò_213-2);
      }

      .cls-58 {
        clip-path: url(#clippath);
      }

      .cls-22 {
        fill: url(#_Áåçûìÿííûé_ãðàäèåíò_6-4);
      }

      .cls-59 {
        fill: #402f40;
      }

      .cls-60 {
        mix-blend-mode: color;
      }

      .cls-61 {
        fill: none;
      }

      .cls-23 {
        fill: url(#_Áåçûìÿííûé_ãðàäèåíò_20);
      }

      .cls-24 {
        fill: url(#_Áåçûìÿííûé_ãðàäèåíò_436);
      }

      .cls-62 {
        fill: #ffbba6;
      }

      .cls-63 {
        fill: url(#_Áåçûìÿííûé_ãðàäèåíò_203-2);
      }

      .cls-25 {
        fill: url(#_Áåçûìÿííûé_ãðàäèåíò_6-5);
      }

      .cls-26 {
        fill: url(#_Áåçûìÿííûé_ãðàäèåíò_25-2);
      }

      .cls-64 {
        fill: url(#linear-gradient);
      }

      .cls-28 {
        fill: #a13751;
      }

      .cls-65 {
        fill: url(#_Áåçûìÿííûé_ãðàäèåíò_12);
      }

      .cls-66 {
        fill: url(#_Áåçûìÿííûé_ãðàäèåíò_203);
      }

      .cls-37 {
        fill: url(#_Áåçûìÿííûé_ãðàäèåíò_221-3);
      }

      .cls-38 {
        fill: url(#_Áåçûìÿííûé_ãðàäèåíò_221-2);
      }

      .cls-67 {
        fill: url(#_Áåçûìÿííûé_ãðàäèåíò_124);
      }
    </style>
    <radialGradient id="_Áåçûìÿííûé_ãðàäèåíò_25" data-name="Áåçûìÿííûé ãðàäèåíò 25" cx="6888.62" cy="-681.1" fx="6888.62" fy="-681.1" r="126.3" gradientTransform="translate(7112.2 851.27) rotate(177.13) scale(1 -1)" gradientUnits="userSpaceOnUse">
      <stop offset="0" stop-color="#f4dbee"/>
      <stop offset="1" stop-color="#d1bde5"/>
    </radialGradient>
    <linearGradient id="_Áåçûìÿííûé_ãðàäèåíò_163" data-name="Áåçûìÿííûé ãðàäèåíò 163" x1="6743.41" y1="-646.65" x2="6893.23" y2="-646.65" gradientTransform="translate(7112.2 851.27) rotate(177.13) scale(1 -1)" gradientUnits="userSpaceOnUse">
      <stop offset="0" stop-color="#9579a7"/>
      <stop offset="1" stop-color="#fff"/>
    </linearGradient>
    <radialGradient id="_Áåçûìÿííûé_ãðàäèåíò_436" data-name="Áåçûìÿííûé ãðàäèåíò 436" cx="6944.98" cy="-242.03" fx="6944.98" fy="-242.03" r="134.65" gradientTransform="translate(7112.2 851.27) rotate(177.13) scale(1 -1)" gradientUnits="userSpaceOnUse">
      <stop offset="0" stop-color="#f4f1ff"/>
      <stop offset="1" stop-color="#d1bde5"/>
    </radialGradient>
    <radialGradient id="_Áåçûìÿííûé_ãðàäèåíò_25-2" data-name="Áåçûìÿííûé ãðàäèåíò 25" cx="6514.9" cy="-559.76" fx="6514.9" fy="-559.76" r="137.87" xlink:href="#_Áåçûìÿííûé_ãðàäèåíò_25"/>
    <radialGradient id="_Áåçûìÿííûé_ãðàäèåíò_436-2" data-name="Áåçûìÿííûé ãðàäèåíò 436" cx="6609.1" cy="-217.68" fx="6609.1" fy="-217.68" r="162.34" xlink:href="#_Áåçûìÿííûé_ãðàäèåíò_436"/>
    <linearGradient id="_Áåçûìÿííûé_ãðàäèåíò_6" data-name="Áåçûìÿííûé ãðàäèåíò 6" x1="6404.55" y1="-361.51" x2="6880.95" y2="-361.51" gradientTransform="translate(7112.2 851.27) rotate(177.13) scale(1 -1)" gradientUnits="userSpaceOnUse">
      <stop offset="0" stop-color="#fff"/>
      <stop offset="1" stop-color="#9579a7"/>
    </linearGradient>
    <linearGradient id="_Áåçûìÿííûé_ãðàäèåíò_6-2" data-name="Áåçûìÿííûé ãðàäèåíò 6" x1="6828.5" y1="-73.15" x2="6940.58" y2="-73.15" xlink:href="#_Áåçûìÿííûé_ãðàäèåíò_6"/>
    <linearGradient id="_Áåçûìÿííûé_ãðàäèåíò_6-3" data-name="Áåçûìÿííûé ãðàäèåíò 6" x1="6503.34" y1="-42.73" x2="6608.87" y2="-42.73" xlink:href="#_Áåçûìÿííûé_ãðàäèåíò_6"/>
    <linearGradient id="_Áåçûìÿííûé_ãðàäèåíò_6-4" data-name="Áåçûìÿííûé ãðàäèåíò 6" x1="6327.01" y1="-506.37" x2="6399.77" y2="-506.37" xlink:href="#_Áåçûìÿííûé_ãðàäèåíò_6"/>
    <linearGradient id="_Áåçûìÿííûé_ãðàäèåíò_163-2" data-name="Áåçûìÿííûé ãðàäèåíò 163" x1="7003.17" y1="-751.39" x2="7047.4" y2="-751.39" xlink:href="#_Áåçûìÿííûé_ãðàäèåíò_163"/>
    <linearGradient id="_Áåçûìÿííûé_ãðàäèåíò_93" data-name="Áåçûìÿííûé ãðàäèåíò 93" x1="6700.95" y1="-1133.91" x2="6700.95" y2="-887.61" gradientTransform="translate(7112.2 851.27) rotate(177.13) scale(1 -1)" gradientUnits="userSpaceOnUse">
      <stop offset="0" stop-color="#007c7e"/>
      <stop offset="1" stop-color="#0f183b"/>
    </linearGradient>
    <radialGradient id="radial-gradient" cx="6651.16" cy="-937" fx="6651.16" fy="-937" r="354.62" gradientTransform="translate(7112.2 851.27) rotate(177.13) scale(1 -1)" gradientUnits="userSpaceOnUse">
      <stop offset="0" stop-color="#00c6ff"/>
      <stop offset=".15" stop-color="#00addf"/>
      <stop offset=".47" stop-color="#006f90"/>
      <stop offset=".93" stop-color="#000e12"/>
      <stop offset="1" stop-color="#000"/>
    </radialGradient>
    <linearGradient id="linear-gradient" x1="6879.15" y1="-1033.62" x2="6530.79" y2="-906.82" gradientTransform="translate(7112.2 851.27) rotate(177.13) scale(1 -1)" gradientUnits="userSpaceOnUse">
      <stop offset="0" stop-color="#00c6ff"/>
      <stop offset=".15" stop-color="#00addf"/>
      <stop offset=".47" stop-color="#006f90"/>
      <stop offset=".93" stop-color="#000e12"/>
      <stop offset="1" stop-color="#000"/>
    </linearGradient>
    <linearGradient id="_Áåçûìÿííûé_ãðàäèåíò_11" data-name="Áåçûìÿííûé ãðàäèåíò 11" x1="-4859.99" y1="-1334.91" x2="-4859.99" y2="-1662.31" gradientTransform="translate(5421.09 1025.49) rotate(-8.37)" gradientUnits="userSpaceOnUse">
      <stop offset=".02" stop-color="#ffae78"/>
      <stop offset="1" stop-color="#ff957c"/>
    </linearGradient>
    <linearGradient id="_Áåçûìÿííûé_ãðàäèåíò_98" data-name="Áåçûìÿííûé ãðàäèåíò 98" x1="-4854.59" y1="-1334.91" x2="-4854.59" y2="-1662.31" gradientTransform="translate(5421.09 1025.49) rotate(-8.37)" gradientUnits="userSpaceOnUse">
      <stop offset=".02" stop-color="#f0c2d6"/>
      <stop offset=".99" stop-color="#bd89c4"/>
    </linearGradient>
    <linearGradient id="_Áåçûìÿííûé_ãðàäèåíò_124" data-name="Áåçûìÿííûé ãðàäèåíò 124" x1="-4827.56" y1="-1400.27" x2="-4827.56" y2="-1739.72" gradientTransform="translate(5421.09 1025.49) rotate(-8.37)" gradientUnits="userSpaceOnUse">
      <stop offset="0" stop-color="#813645"/>
      <stop offset="1" stop-color="#bd5042"/>
    </linearGradient>
    <linearGradient id="_Áåçûìÿííûé_ãðàäèåíò_124-2" data-name="Áåçûìÿííûé ãðàäèåíò 124" x1="-4814.54" y1="-1512.92" x2="-4814.54" y2="-1595.5" xlink:href="#_Áåçûìÿííûé_ãðàäèåíò_124"/>
    <linearGradient id="_Áåçûìÿííûé_ãðàäèåíò_124-3" data-name="Áåçûìÿííûé ãðàäèåíò 124" x1="-4948.2" y1="-1552" x2="-4948.2" y2="-1620.51" xlink:href="#_Áåçûìÿííûé_ãðàäèåíò_124"/>
    <linearGradient id="_Áåçûìÿííûé_ãðàäèåíò_13" data-name="Áåçûìÿííûé ãðàäèåíò 13" x1="-4852.55" y1="-1434.84" x2="-4852.55" y2="-1522.69" gradientTransform="translate(5421.09 1025.49) rotate(-8.37)" gradientUnits="userSpaceOnUse">
      <stop offset="0" stop-color="#fff"/>
      <stop offset="1" stop-color="#d0c7f8"/>
    </linearGradient>
    <linearGradient id="_Áåçûìÿííûé_ãðàäèåíò_13-2" data-name="Áåçûìÿííûé ãðàäèåíò 13" x1="-4971.03" y1="-1477.61" x2="-4971.03" y2="-1559.95" xlink:href="#_Áåçûìÿííûé_ãðàäèåíò_13"/>
    <clipPath id="clippath">
      <path class="cls-61" d="m364.64,296.02c-7.46-21.15,1.4-62.49,34.15-70.27,32.75-7.79,58.82,36.07,51.15,63.63-7.39,26.53-75.66,34.02-85.3,6.65Z"/>
    </clipPath>
    <linearGradient id="_Áåçûìÿííûé_ãðàäèåíò_203" data-name="Áåçûìÿííûé ãðàäèåíò 203" x1="-4435.22" y1="309.19" x2="-4435.22" y2="246.68" gradientTransform="translate(5474.02 716.48) rotate(9.27) scale(1.15 1.38)" gradientUnits="userSpaceOnUse">
      <stop offset="0" stop-color="#6f8b8b"/>
      <stop offset=".98" stop-color="#5c435b"/>
    </linearGradient>
    <clipPath id="clippath-1">
      <path class="cls-61" d="m260.55,270.31c.23,10,3.25,18.5,11.17,19.04,7.92.54,27.19-3.79,34.73-23.11,4.99-12.78-2.93-58.77-20.27-61.42-14.77-2.26-26.08,45.92-25.63,65.49Z"/>
    </clipPath>
    <linearGradient id="_Áåçûìÿííûé_ãðàäèåíò_203-2" data-name="Áåçûìÿííûé ãðàäèåíò 203" x1="-9023.18" y1="494.63" x2="-9023.18" y2="429.32" gradientTransform="translate(5878.04 831.14) rotate(11.21) scale(.62 1.14)" xlink:href="#_Áåçûìÿííûé_ãðàäèåíò_203"/>
    <linearGradient id="_Áåçûìÿííûé_ãðàäèåíò_221" data-name="Áåçûìÿííûé ãðàäèåíò 221" x1="-4897.38" y1="-1407.68" x2="-4899.68" y2="-1426.96" gradientTransform="translate(5421.09 1025.49) rotate(-8.37)" gradientUnits="userSpaceOnUse">
      <stop offset="0" stop-color="#bd89c4"/>
      <stop offset=".98" stop-color="#f0c2d6"/>
    </linearGradient>
    <linearGradient id="_Áåçûìÿííûé_ãðàäèåíò_213" data-name="Áåçûìÿííûé ãðàäèåíò 213" x1="-4746.76" y1="-1603.69" x2="-4746.76" y2="-1698.62" gradientTransform="translate(5421.09 1025.49) rotate(-8.37)" gradientUnits="userSpaceOnUse">
      <stop offset="0" stop-color="#aa454f"/>
      <stop offset="1" stop-color="#d98638"/>
    </linearGradient>
    <linearGradient id="_Áåçûìÿííûé_ãðàäèåíò_12" data-name="Áåçûìÿííûé ãðàäèåíò 12" x1="-4873.87" y1="-1672.52" x2="-4873.87" y2="-1739.7" gradientTransform="translate(5421.09 1025.49) rotate(-8.37)" gradientUnits="userSpaceOnUse">
      <stop offset="0" stop-color="#b14d4e"/>
      <stop offset="1" stop-color="#d98638"/>
    </linearGradient>
    <linearGradient id="_Áåçûìÿííûé_ãðàäèåíò_98-2" data-name="Áåçûìÿííûé ãðàäèåíò 98" x1="-4950.94" y1="-1643.5" x2="-4915.42" y2="-1643.5" xlink:href="#_Áåçûìÿííûé_ãðàäèåíò_98"/>
    <linearGradient id="_Áåçûìÿííûé_ãðàäèåíò_221-2" data-name="Áåçûìÿííûé ãðàäèåíò 221" x1="-4914.72" y1="-1629.04" x2="-4914.72" y2="-1717.48" xlink:href="#_Áåçûìÿííûé_ãðàäèåíò_221"/>
    <linearGradient id="_Áåçûìÿííûé_ãðàäèåíò_221-3" data-name="Áåçûìÿííûé ãðàäèåíò 221" x1="-4726.72" y1="-1400.27" x2="-4726.72" y2="-1586.29" xlink:href="#_Áåçûìÿííûé_ãðàäèåíò_221"/>
    <linearGradient id="_Áåçûìÿííûé_ãðàäèåíò_10" data-name="Áåçûìÿííûé ãðàäèåíò 10" x1="-5297.24" y1="127.07" x2="-5297.24" y2="33.02" gradientTransform="translate(5803.2 861.13) rotate(6.3)" gradientUnits="userSpaceOnUse">
      <stop offset=".02" stop-color="#ff8359"/>
      <stop offset="1" stop-color="#ff8b7c"/>
    </linearGradient>
    <linearGradient id="_Áåçûìÿííûé_ãðàäèåíò_69" data-name="Áåçûìÿííûé ãðàäèåíò 69" x1="-5330.07" y1="83.82" x2="-5268.39" y2="83.82" gradientTransform="translate(5803.2 861.13) rotate(6.3)" gradientUnits="userSpaceOnUse">
      <stop offset="0" stop-color="#b060f4"/>
      <stop offset="1" stop-color="#ffeadb"/>
    </linearGradient>
    <linearGradient id="_Áåçûìÿííûé_ãðàäèåíò_213-2" data-name="Áåçûìÿííûé ãðàäèåíò 213" x1="-4826.03" y1="-1627.36" x2="-4826.03" y2="-1718.47" xlink:href="#_Áåçûìÿííûé_ãðàäèåíò_213"/>
    <linearGradient id="_Áåçûìÿííûé_ãðàäèåíò_519" data-name="Áåçûìÿííûé ãðàäèåíò 519" x1="6652.85" y1="-700.74" x2="6652.85" y2="-1182.47" gradientTransform="translate(7112.2 851.27) rotate(177.13) scale(1 -1)" gradientUnits="userSpaceOnUse">
      <stop offset="0" stop-color="#d1bde5"/>
      <stop offset="1" stop-color="#fff"/>
    </linearGradient>
    <radialGradient id="radial-gradient-2" cx="6757.41" cy="-1008.16" fx="6757.41" fy="-1008.16" r="225.53" gradientTransform="translate(7112.2 851.27) rotate(177.13) scale(1 -1)" gradientUnits="userSpaceOnUse">
      <stop offset="0" stop-color="#0f183b"/>
      <stop offset="1" stop-color="#00e7ff"/>
    </radialGradient>
    <radialGradient id="radial-gradient-3" cx="6753.59" cy="-1040.33" fx="6753.59" fy="-1040.33" r="256.91" gradientTransform="translate(7112.2 851.27) rotate(177.13) scale(1 -1)" gradientUnits="userSpaceOnUse">
      <stop offset="0" stop-color="#000"/>
      <stop offset=".27" stop-color="#000002"/>
      <stop offset=".41" stop-color="#000209"/>
      <stop offset=".52" stop-color="#000417"/>
      <stop offset=".61" stop-color="#00082a"/>
      <stop offset=".69" stop-color="#000e42"/>
      <stop offset=".77" stop-color="#001460"/>
      <stop offset=".84" stop-color="#001c84"/>
      <stop offset=".9" stop-color="#0024ae"/>
      <stop offset=".96" stop-color="#002edc"/>
      <stop offset="1" stop-color="#0036ff"/>
    </radialGradient>
    <linearGradient id="_Áåçûìÿííûé_ãðàäèåíò_6-5" data-name="Áåçûìÿííûé ãðàäèåíò 6" x1="6393.95" y1="-843.04" x2="6885.1" y2="-843.04" xlink:href="#_Áåçûìÿííûé_ãðàäèåíò_6"/>
    <linearGradient id="_Áåçûìÿííûé_ãðàäèåíò_20" data-name="Áåçûìÿííûé ãðàäèåíò 20" x1="6510.84" y1="-725.8" x2="6510.84" y2="-981.41" gradientTransform="translate(7112.2 851.27) rotate(177.13) scale(1 -1)" gradientUnits="userSpaceOnUse">
      <stop offset="0" stop-color="#d1bde5"/>
      <stop offset="1" stop-color="#f4dbee"/>
    </linearGradient>
    <linearGradient id="linear-gradient-2" x1="6678.91" y1="-1027.87" x2="6818.66" y2="-785.82" gradientTransform="translate(7112.2 851.27) rotate(177.13) scale(1 -1)" gradientUnits="userSpaceOnUse">
      <stop offset="0" stop-color="#ffc02d"/>
      <stop offset="1" stop-color="#000"/>
    </linearGradient>
    <radialGradient id="radial-gradient-4" cx="5034.19" cy="1376.25" fx="5034.19" fy="1376.25" r="40.93" gradientTransform="translate(7683.35 1614.83) rotate(-161.69) scale(1.47 -.66)" gradientUnits="userSpaceOnUse">
      <stop offset="0" stop-color="#afee00"/>
      <stop offset=".06" stop-color="#9dd500"/>
      <stop offset=".2" stop-color="#739d00"/>
      <stop offset=".34" stop-color="#506d00"/>
      <stop offset=".48" stop-color="#334600"/>
      <stop offset=".62" stop-color="#1d2700"/>
      <stop offset=".75" stop-color="#0c1100"/>
      <stop offset=".88" stop-color="#030400"/>
      <stop offset="1" stop-color="#000"/>
    </radialGradient>
    <radialGradient id="radial-gradient-5" cx="1298.72" cy="-9828.36" fx="1298.72" fy="-9828.36" r="40.93" gradientTransform="translate(4830.62 -3216.57) rotate(98.97) scale(3.17 -.41)" gradientUnits="userSpaceOnUse">
      <stop offset="0" stop-color="#eeba00"/>
      <stop offset=".06" stop-color="#d5a700"/>
      <stop offset=".2" stop-color="#9d7b00"/>
      <stop offset=".34" stop-color="#6d5500"/>
      <stop offset=".48" stop-color="#463600"/>
      <stop offset=".62" stop-color="#271e00"/>
      <stop offset=".75" stop-color="#110d00"/>
      <stop offset=".88" stop-color="#040300"/>
      <stop offset="1" stop-color="#000"/>
    </radialGradient>
  </defs>
  <g class="cls-43">
    <g id="Capa_1" data-name="Capa 1">
      <g>
        <path class="cls-10" d="m520.49,727.97c-.69-2.32-1.44-4.8-2.26-7.39-3.57-11.92-7.69-26.76-12.23-45.03-9.99-39.94-27.26-105.29-39.21-150.23v-.05c-3.6-13.5-6.71-25.17-9.03-33.75-.85-3.24-1.62-6.1-2.25-8.37-1.21-4.65-1.91-7.18-1.91-7.18,0,0-87.31,12.23-124.79-14.07,0,0-1.11,1.14-3.05,3.47-.26.29-.47.57-.74.85-10,12.26-36.96,50.74-46.78,119.72-1.21,8.53-2.16,17.48-2.81,26.96-.21,3.34-.41,6.74-.55,10.25,0,0-35.62,69.7-47.9,152.94,0,.06-.02.11-.02.17h0s-9.81,43.6-9.81,43.6c-.86,2.26-1.79,4.69-2.77,7.3-16.71,44.64-62.88,130.7-64.22,170.11-.93,26.94,18.45,62.71,37.68,91.32-13.76,2.93-19.53,8.32-19.62,8.41,0,0-.01,0-.02,0,0,0,0,.01,0,.02h0s0,0,0,0c.22.38,16.02,27.7,49.9,44.69,0,0-36.28,6.05-42.84,44.85l102.51-38.9-3.17-12.81,8.99-29.53s-.03,0-.07,0c.03-.02.04-.03.04-.03-1.4-.59-2.75-1.12-4.12-1.67,11.94-40.92,35.13-112.44,62.57-157.38l2.98-4.75c.51-.8,1.03-1.61,1.55-2.39l38.76,6.95s.05-.11.09-.33c.05-.17.09-.33.19-.61.05-.17.09-.33.19-.55.04-.22.14-.44.24-.72,5.43-16.04,42.75-115.77,147.06-181.34,0,0-4.66-9.36-12.6-34.52Z"/>
        <path class="cls-10" d="m1.33,396.5c3.72,25.64,17.5,45.92,30.09,59.61,12.09,13.2,23.08,20.28,23.08,20.28,0,0,20.02-14.06,25.27-39.05,0,0,4.26-12.01,3.18-18.94-2.41-15.3-10.3-37.3-19.06-48.41l-7.22,7.44s-6.74-15.08-42.94-24.24c0,0-18.82-.9-12.41,43.32Z"/>
        <path class="cls-10" d="m395.01,435.06c8.88-20.31,22.44-35.22,39.02-49.32,18.79-15.99,43.05-25.69,66.61-32.35,14.36-4.05,29.22-7.24,43.15-12.71.46-.35.94-.69,1.39-1.04,6.54-6.93,12.5-14.38,17.99-22.17,2.74-4.85,5.27-9.81,7.55-14.89-4.72-7.03-9.24-14.21-12.68-22.81-6.19-15.47-7.82-35.47-5.41-51.97.3-2.02.73-4.01,1.19-5.99-1.9-6.5-3.54-13.05-4.24-19.76-10.01,14.76-28.99,41.33-45.82,88.13-4.15,11.51-8.17,24.18-11.9,38.25l-21.86-2.86s-42.63,89.99-157.06,82.48c-93.02-6.2-132.72-62.1-143.1-82.04-.27-.85-.38-1.7-.57-2.47-7.3-34.76-6.11-105.38,15.09-171.55,15.03-46.88,40.03-91.57,79.4-119.75,1.78-1.2,3.64-2.47,5.73-3.53l3.07-1.58c7.26-3.53,16.01-6.37,26.09-8.57,14.77-3.25,32.06-5.07,50.87-5.41,37.19,1.85,87.3,11.76,133.47,44.83,45.41,32.55,63.95,73.87,70.64,101.87,2.15-7.21,5.09-14.16,8.93-20.59,12.1-20.25,22.95-31.5,40.44-47.28.49-.44,1-.87,1.49-1.31-15.22-17.84-33.98-34.05-57.19-46.99C493.23,13.45,413.15-1.14,348.86.08c-20.11.41-38.53,2.37-54.3,5.83-10.69,2.32-20.11,5.34-27.82,9.14l-3.22,1.67c-2.24,1.14-4.25,2.43-6.1,3.78-101.13,72.17-113.99,247.28-100.82,310.53.27.92.39,1.78.66,2.7,3.3,12.03,11.53,26.77,23.69,41.91,0,0,.66.98,2.1,2.55,22.82,27.71,58.25,56.68,99.23,74.53,29.07,12.71,65.39,24.02,103.69,30.24-.78-16.28,2.41-32.74,9.04-47.9Z"/>
        <path class="cls-10" d="m57.91,489.28c2.36,47.03,79.9,128.75,134.21,138.04,2.43.44,4.89.66,7.3.82,33.83,1.63,66.83-24.16,85.58-42.25,9.95-9.52,15.92-16.93,15.92-16.93l33.98-106.43s-1.43-.15-3.95-.31c-7.78-.46-25.99-1.01-44.58,2.74-24.54,4.95-101.03-3.45-135.7-24.16-34.68-20.71-44.3-37.31-53.67-38.99-9.42-1.67-21.15,11.72-21.15,11.72,0,0-20.42,26.12-17.93,75.74Z"/>
        <path class="cls-53" d="m824.1,1061.13c11.81-.59,24.31-2.65,37.67-6.44,73.35-20.83,100.67-103.83,83.92-168.78-17.13-66.42-84.66-132.96-218.58-101.85-234.78,54.55-279.46-29.41-279.88-30.27l-14.66,7.27c1.97,3.96,51,96.36,298.24,38.94,122.31-28.41,183.01,27.86,199.03,89.99,14.84,57.52-8.68,130.82-72.55,148.96-78.81,22.36-124.82-22.39-173.53-69.78-19.29-18.76-39.23-38.17-61.35-53.13-78.7-53.26-155.33-27.96-158.55-26.86l5.28,15.48c.72-.25,72.37-23.62,144.1,24.92,20.92,14.16,40.33,33.05,59.11,51.32,42.32,41.17,85.87,83.53,151.73,80.23Z"/>
        <path class="cls-16" d="m564.71,1183.93s28.21,67.56,75.79,63.8l-75.79-63.8Z"/>
        <path class="cls-15" d="m58.14,493.91c2.28,45.54,79.69,124.55,133.98,133.45,2.42.42,4.89.63,7.3.78,33.82,1.53,66.86-23.5,85.64-41.04,9.97-9.24,15.94-16.42,15.94-16.42l34.15-103.11s-1.43-.15-3.95-.29c-7.78-.43-25.98-.94-44.59,2.73-24.55,4.84-101.02-3.18-135.65-23.18-34.64-20-44.24-36.06-53.6-37.67-9.42-1.6-21.16,11.38-21.16,11.38,0,0-20.46,25.33-18.05,73.37Z"/>
        <path class="cls-8" d="m76.19,420.55s17.54-.88,20.72,10.86c3.18,11.74-7.16,73.82-38.77,62.47-31.61-11.35,18.05-73.33,18.05-73.33h0Z"/>
        <path class="cls-12" d="m83.22,426.67s-4.99,33.39-31.66,54.61c0,0-3.24-44.07,31.66-54.61Z"/>
        <path class="cls-19" d="m9.29,400.62c3.4,24.24,15.83,43.44,27.18,56.41,10.89,12.5,20.79,19.22,20.79,19.22,0,0,17.96-13.24,22.62-36.85,0,0-.44-4.4-1.42-10.96-2.2-14.47-6.94-39.4-14.84-49.93l-5.34,14.47s-5.38-24.52-37.93-33.26c0,0-16.92-.9-11.05,40.91Z"/>
        <path class="cls-40" d="m191.2,461.62s10.23,32.21-5.08,88.13c-15.3,55.91-54.22,47.78-54.22,47.78,0,0,19.42,15.76,35.17,21.73,0,0,96.64,5.94,60.01-150.91l-35.88-6.73Z"/>
        <path class="cls-6" d="m285.05,587.1c-1.21,8.52-2.18,17.47-2.85,26.95l49.43-46.49,9.79-98.73-9.51-2.42c-.26.29-.46.57-.72.86-7.78-.43-25.98-.94-44.59,2.73,0,0,48.1,90.2-87.09,158.08q-.05,0-.11.06c33.82,1.53,66.86-23.5,85.64-41.04Z"/>
        <path class="cls-12" d="m175.6,1098.25s28.7-27.99,112.57,7.81c0,0-47.23,31.68-112.57-7.81Z"/>
        <path class="cls-12" d="m613.42,1099.75s-55.68-17.56-104.04,36.26c0,0,21.04,17.57,56.84,9.31,35.8-8.26,47.2-45.56,47.2-45.56Z"/>
        <path class="cls-24" d="m230.62,1138.06l44.94-2.25s2.63-10.62,7.42-27.29c12.03-42.21,37.51-123.11,67.33-168.78v-.05s-119.05-136.33-119.05-136.33c0,0-3.77,9.69-9.5,25.05-16.49,44.67-61.9,130.87-63.37,170.26-1.99,52.85,72.23,139.4,72.23,139.4Z"/>
        <path class="cls-16" d="m231.26,803.35s28.65,82.38,112,135.1l7.05,1.28,37.8,6.79s.05-.11.09-.33c.05-.17.09-.33.19-.61.05-.17.09-.33.19-.55.04-.22.14-.44.24-.72,5.37-16.05,42.19-115.86,144.27-181.81,0,0-4.51-9.33-12.16-34.45-.66-2.31-1.39-4.79-2.17-7.37-3.44-11.9-7.4-26.71-11.76-44.95-9.59-39.87-26.19-105.11-37.66-149.97v-.05c-3.46-13.48-6.45-25.12-8.68-33.69-.82-3.24-1.56-6.09-2.17-8.35-1.16-4.64-1.83-7.17-1.83-7.17,0,0-85.26,12.58-121.74-13.55,0,0-1.09,1.15-2.99,3.48-.26.29-.46.57-.72.86-9.81,12.29-36.27,50.85-46.14,119.83-1.21,8.52-2.18,17.47-2.85,26.95-.21,3.34-.43,6.74-.58,10.24,0,0-35.05,69.8-47.37,153.03-1.26,8.58-2.3,17.26-3.01,26.03Z"/>
        <path class="cls-26" d="m447.59,589.93q0,.05,0,.11c.63,2.86,1.38,5.77,2.13,8.79,11.92,47.18,37.44,97.72,71.19,129.23,20.68,19.33,44.39,31.47,69.94,31.39,57.05-.24,92.59-36.26,102.04-47.16.31-.4.62-.74.88-1.03.25-.4.51-.68.72-.91.62-.74.93-1.14.93-1.14,0,0,20.38-6.21,19.81-27.37-.52-21.22-9.42-53.86-9.42-53.86l-10.01-3.65s-2.33-14.85-16.34-18.84c-14.07-3.94-47.79-1.21-87.7-24.05-35.08-20.03-84.51-60.58-100.43-76.49-2.24-2.24-3.8-3.96-4.57-5.12-6.31-9.35-17.68-16.15-17.68-16.15h-6.39s-4.2-.02-4.2-.02h-12.94s-16.4,26.92,2.05,106.26Z"/>
        <path class="cls-17" d="m388.1,946.53s59.79,97.91,73.47,123.6c13.68,25.69,62.63,72.87,91.27,86.45.73.35,1.45.69,2.12.93,27.41,11.84,44.94-3.29,44.94-3.29,0,0,1.07-5.95,2.67-15.37,2.1-12.5,5.16-31.06,7.77-49.7,3.56-24.81,6.35-49.68,5.38-60.39-1.68-18.26-45.99-154.9-69-225.01-8.18-24.76-13.65-41.25-13.65-41.25-99.08,35.49-139.13,163.53-144.27,181.81-.1.28-.19.5-.24.72-.1.22-.14.39-.19.56-.09.28-.14.44-.19.61-.04.22-.09.33-.09.33Z"/>
        <path class="cls-12" d="m438.45,483.34s-46.35,16.56-62.91,16.36c-16.56-.2-40.64-36.75-40.64-36.75,0,0,34.1,15.84,103.55,20.39Z"/>
        <path class="cls-12" d="m469.06,483.7s-39.01,122.02,34.07,228.48c0,0-71.3-80.83-64.68-228.84l30.61.36Z"/>
        <path class="cls-12" d="m341.4,468.82s-46.01,86.56-59.8,155.49c0,0-2.76-82.01,39.52-157.32l13.78-4.03,6.5,5.87Z"/>
        <path class="cls-12" d="m541.43,787.8s-67.99,22.55-143.68,174.56l-9.62-15.81s40.71-157.98,144.93-184.05l8.37,25.3Z"/>
        <path class="cls-12" d="m234.24,777.48s39.72,121.21,116.03,162.24l-5.54,9s-81.74-30.4-120.28-127.44l9.79-43.79Z"/>
        <path class="cls-8" d="m695.42,709.21s20.38-6.21,19.81-27.37c-.52-21.22-9.42-53.86-9.42-53.86l-10.01-3.65s-48.87,37.12-.39,84.88Z"/>
        <path class="cls-12" d="m705.75,693.68s-23.56-41.76.07-65.71c0,0,16.49,56.89-.07,65.71Z"/>
        <path class="cls-19" d="m696.39,648.1s6.85-28.29,33.11-35.12l.67,13.42s36.53-22.04,61.97.18c0,0-13.33,56.29-89.68,61.09,0,0-9.91-15.95-6.07-39.55Z"/>
        <path class="cls-40" d="m604.19,984.59s1.57,41.57-56.76,64.67c-58.33,23.1-98.65-1.66-98.65-1.66,0,0,14.81,29.03,27.09,42.9,12.28,13.87,98.28,7.67,138.44-32.66,0,0,3.63-21.47.63-33.73-2.99-12.25-10.75-39.52-10.75-39.52Z"/>
        <path class="cls-40" d="m320.42,998.82s-40.97,24.22-85.53,30.59c-44.56,6.37-76.1-17.33-76.1-17.33,0,0,5.9,29.3,18.41,48.05,0,0,47.95,11.63,76.8,3.98,28.84-7.65,52.8-30.02,52.8-30.02l13.62-35.27Z"/>
        <path class="cls-40" d="m581.46,575.23s-91.39,67.14-26.05,176.4c0,0-18.06-7.14-32.31-21.58-22.25-20.66-54.24-158.73,31.49-173.68l26.86,18.85Z"/>
        <path class="cls-44" d="m349.65,939.98l1.26-.53c-.37-.88-37.24-88.86-40.35-150.94-2.69-53.73,3.97-80.54,13.2-117.65,3.49-14.02,7.44-29.92,11.24-49.06,13.4-67.39,33.42-120.89,33.62-121.43l-1.28-.48c-.2.53-20.26,54.14-33.68,121.64-3.8,19.12-7.75,34.99-11.23,49-9.25,37.22-15.94,64.11-13.24,118.05,3.12,62.32,40.08,150.52,40.45,151.41Z"/>
        <path class="cls-9" d="m279.33,1108.69l3.65-.18c12.03-42.21,37.51-123.11,67.33-168.78l37.8,6.79s59.79,97.91,73.47,123.6c13.68,25.69,62.63,72.87,91.27,86.45.73.35,1.45.69,2.12.93l47.61-18.66c2.1-12.5,5.16-31.06,7.77-49.7l-3.21-2.02s-53.95,34.87-99.31,17.7c-45.36-17.16-89.72-149.33-82.46-168.91,27.13-73.17,88.83-114.65,121.37-132.17-8.18-24.76-13.64-41.25-13.64-41.25,0,0-4.51-9.33-12.16-34.45,20.68,19.33,44.39,31.47,69.94,31.39,57.05-.24,92.59-36.26,102.04-47.16-10.4,11.39-53.39,51.44-132.04,32.61-16.69-3.97-30.61-12.61-42.11-24.21-51.46-51.7-55.66-162.66-52.03-185.02.63-3.75,1.5-7.01,2.61-9.91v-.05c7-18.21,22-20.76,22-20.76-2.24-2.24-3.8-3.96-4.57-5.12-6.31-9.35-17.68-16.15-17.68-16.15h-6.39c-.5,2.09-1.23,4.91-2.04,8.34-4.4,18.9-11.91,56.57-13.05,97.91q0,.05,0,.11c-.75,25.38.92,52.21,7.13,76.91,20.72,82.23,30.85,97.94,30.85,97.94,0,0-67.58,104.96-107.59,123.73-40.07,18.72-113.4-52.96-128.56-82.01-7.24-13.78-12.03-23.21-15.17-29.27-1.26,8.58-2.3,17.26-3.01,26.03,0,0-3.77,9.69-9.5,25.05,14.57,30.23,63.76,134.63,67.71,171.94,4.6,43.89-10.13,108.35-10.13,108.35Z"/>
        <path class="cls-27" d="m469.08,483.68s-36.73,61.62-110.38,82.52c-73.65,20.9-57.36-98.53-57.36-98.53l19.78-.68,10.8-.56,137.16,17.26Z"/>
        <path class="cls-8" d="m282.35,1148.42l-3.04-12.79,8.89-29.55s-70.03,10.39-112.61-7.84c0,0,15.3,27.52,48.54,44.47,0,0-39.66,6.14-48.86,43.84l107.08-38.13Z"/>
        <path class="cls-8" d="m509.6,1136.09l54.44,34.78.66,13.07s23.72,49.48,75.82,63.8c0,0,4.57-46.04-38.65-82.48l11.57-65.51s-14.14,22.99-42.65,36.98c-27.24,13.32-58.46.53-61.19-.64Z"/>
        <polygon class="cls-16" points="282.36 1148.43 286.86 1155.44 177.02 1193.37 175.3 1186.56 282.36 1148.43"/>
        <path class="cls-7" d="m175.59,1098.24s15.3,27.52,48.54,44.47c0,0,41.41.33,58.22,5.71l-3.04-12.79,8.89-29.55s-70.03,10.39-112.61-7.84Z"/>
        <path class="cls-18" d="m509.6,1136.09l54.44,34.78c20.75,2.13,37.83-5.61,37.83-5.61l11.57-65.51s-14.14,22.99-42.65,36.98c-27.24,13.32-58.46.53-61.19-.64Z"/>
        <path class="cls-22" d="m768.08,663.13s-28,16.43-49.95,10.77c-21.95-5.66-20.5-29.66-20.5-29.66,0,0-8.18,17.44,4.83,43.4,0,0,43.01-1.9,65.62-24.51Z"/>
        <path class="cls-20" d="m36.48,457.03c10.89,12.5,20.79,19.22,20.79,19.22,0,0,17.96-13.24,22.62-36.85,0,0-.44-4.4-1.42-10.96,0,0-6.35,23.53-41.98,28.59Z"/>
        <path class="cls-8" d="m367.16,602.96c.99,19.74,17.79,34.93,37.53,33.94,19.74-.99,34.93-17.79,33.94-37.53-.99-19.74-17.79-34.93-37.53-33.94-19.74.99-34.93,17.79-33.94,37.53Z"/>
        <path class="cls-19" d="m380.43,602.29c.62,12.41,11.18,21.96,23.59,21.34,12.41-.62,21.96-11.18,21.34-23.59-.62-12.41-11.18-21.96-23.59-21.34-12.41.62-21.96,11.18-21.34,23.59Z"/>
        <path class="cls-8" d="m542.45,547.87s-43.18,25.94-46.41-38.41c0,0,33.36,28.28,46.41,38.41Z"/>
        <path class="cls-44" d="m331.61,974.14l.2-1.34c-1.21-.18-121.71-18.91-145.76-60.06l-1.18.69c24.38,41.71,141.74,59.96,146.73,60.71Z"/>
        <path class="cls-44" d="m418.81,1000.25c.06-.3,6.46-29.95,25.15-60.02,29.41-47.34,117.09-89.75,117.98-90.17l-.59-1.23c-.89.42-88.92,43.01-118.54,90.68-18.82,30.29-25.26,60.16-25.33,60.46l1.34.28Z"/>
        <path class="cls-44" d="m645.49,747.23l1.33-.3c-14.3-63.65-4.54-98.57,6.16-116.67,11.53-19.48,26.53-24.08,26.68-24.12l-.39-1.3c-.63.19-15.67,4.79-27.47,24.73-10.83,18.31-20.72,53.57-6.31,117.66Z"/>
        <path class="cls-44" d="m99.32,567.87c61.69-48.16,20.91-142.33,20.49-143.28l-1.25.55c.42.94,40.76,94.15-20.08,141.65l.84,1.07Z"/>
        <path class="cls-33" d="m397.94,707.54s.21,9.17,4.82,23.88l16.83-2.61s-.56-13.43-8.71-23.12l-12.95,1.85Z"/>
        <path class="cls-33" d="m644.51,607.24s-9.3.2-17.11-4.23l-8.35,5.51s10.1,11.02,20.99,6.99l4.47-8.27Z"/>
        <path class="cls-33" d="m569.84,982.84s7.59,10.92,8.2,23.02l-12.66,5.72-6.49-22.76,10.95-5.98Z"/>
        <path class="cls-33" d="m99.42,410.96s6.21,5.26,8.3,16.01l10.37,5.56s-1.44-5.23-4.38-10c-2.94-4.77-14.29-11.57-14.29-11.57Z"/>
        <path class="cls-33" d="m190.7,950.74s-14.68,25.3-16.04,39.16l-11.58-3.9s1.68-21.47,13.93-38.64l13.69,3.38Z"/>
        <g>
          <path class="cls-55" d="m180.81,321.3c.21.82.36,1.64.62,2.45,10.47,19.51,50.36,74.25,143.35,80.63,114.37,7.84,156.56-79.83,156.56-79.83l21.89,2.88c3.67-13.71,7.63-26.1,11.76-37.29,22.9-62.86,50.05-88.23,52.23-97.66,2.59-11.11-4.13-80.1-73.92-129.09-46.28-32.45-96.45-42.3-133.59-44.3-18.81.28-36.11,1.98-50.86,5.09-10,2.1-18.8,4.86-26.02,8.26l-3.01,1.53c-2.1,1.04-3.97,2.24-5.73,3.43-39.2,27.3-64.06,70.83-78.88,116.55-20.94,64.52-21.79,133.45-14.4,167.36Z"/>
          <path class="cls-32" d="m180.81,321.3c.21.82.36,1.64.62,2.45,10.47,19.51,50.36,74.25,143.35,80.63,114.37,7.84,156.56-79.83,156.56-79.83l21.89,2.88c3.67-13.71,7.63-26.1,11.76-37.29,22.9-62.86,50.05-88.23,52.23-97.66,2.59-11.11-4.13-80.1-73.92-129.09-46.28-32.45-96.45-42.3-133.59-44.3-18.81.28-36.11,1.98-50.86,5.09-10,2.1-18.8,4.86-26.02,8.26l-3.01,1.53c-2.1,1.04-3.97,2.24-5.73,3.43-39.2,27.3-64.06,70.83-78.88,116.55-20.94,64.52-21.79,133.45-14.4,167.36Z"/>
          <g class="cls-31">
            <path class="cls-64" d="m338.92,406.76c-4.63,0-9.38-.16-14.26-.49-99.89-6.85-138.22-69.19-144.89-81.62-.33-.91-.46-1.51-.6-2.1l-.2-.84c-8.02-36.81-5.63-106.46,14.45-168.34,17.24-53.2,44.02-92.74,79.6-117.52,1.68-1.14,3.68-2.43,5.97-3.58l3-1.52c7.3-3.43,16.2-6.26,26.49-8.43,14.76-3.11,31.99-4.84,51.22-5.13,35.17,1.89,86.96,11.17,134.7,44.65,67.81,47.6,78.01,116.76,74.68,131.07-.77,3.32-3.98,7.95-8.85,14.97-10.41,14.99-27.83,40.07-43.44,82.92-4.27,11.58-8.21,24.07-11.71,37.13l-.43,1.6-22.22-2.92c-5.5,10.2-46.83,80.16-143.49,80.16Zm-156.26-85.87l.19.8c.11.49.23.99.38,1.48,6.37,11.8,43.78,72.61,141.68,79.32,111.68,7.69,154.31-77.89,154.73-78.76l.59-1.23,21.61,2.84c3.42-12.6,7.25-24.65,11.38-35.86,15.78-43.3,33.37-68.63,43.89-83.77,4.46-6.41,7.67-11.05,8.28-13.66,1.89-8.12-2.37-77.43-73.16-127.12-47-32.96-98.05-42.1-132.6-43.96-18.85.29-35.84,1.99-50.36,5.05-10.01,2.1-18.63,4.84-25.61,8.12l-2.96,1.5c-2.11,1.05-3.98,2.26-5.53,3.31-34.86,24.28-61.16,63.17-78.14,115.57-19.87,61.24-22.26,130.04-14.35,166.36Z"/>
          </g>
          <path class="cls-47" d="m250.57,270.97c-6.22,13.86-29.48,27.68-24.71,60.57,1.55,10.73,7.34,23.47,16.06,35.87,17.91,25.61,48.19,49.83,78.81,52.03,1.37.1,2.81.13,4.2.2-1.92-41.2,29.83-71.28,68.81-75.81,15.96-1.85,42.56-13.34,58.62-19.67,1.44-5.67,2.72-11.36,3.93-17.1,3.68-17.49,3.59-31.86,2.63-50.03-2.09-39.57,22.83-63.61,52.55-71.11-8.01-5.4-14.78-12.17-20.23-20.4-2.72-5.65-5.45-11.29-8.17-16.94-4.09-12.67-4.74-25.51-1.93-38.52.42-1.77.76-3.56,1.25-5.31.11-.38.23-.76.35-1.14.88-2.71,1.93-5.8,3.04-8.88-8.49-13.89-17.1-34.58-20.52-64.59,0-.02,0-.04,0-.07,0,0-.01.02-.01.02,0,0,0,0,0-.01,0,0-.02.04-.03.04-.25.24-14.33,14.32-15.33,33.28,0,0-.04-.03-.04-.03-.3-.37-43.7-53.3-73.15-39.45-5.9,2.78-10.5,8.32-14.12,15.39-17.08-4.25-39.35-11.38-60.3-22.75-2.49,1.26-5.15,2.34-7.9,3.31-1.48,7.14-2.91,18.96.37,30.52-4.35-2.81-9.23-11.18-9.8-16.79,0,0-20.1,33.7-1,60.38.11.15.19.32.3.47.3.42.67.77.98,1.18.72.94,1.38,1.88,2.19,2.81,0,0-.18.11-.46.28-2.72,1.47-6.29,4.56-8.47,6.55-.21.19-.41.38-.63.58-.78.73-1.29,1.22-1.29,1.22,0,0,0,0,0,.01-10.52,7.48-21.1,36.04-20.53,58.88,0,0,5.55-6.77,17.33-13.06-1.54,5.39-2.02,10.08-2.02,10.08,0,0,.01,0,.02,0-3.82,10.6-6.36,21.66-7.71,32.97-2.01,16.87-3.59,30.7-5.27,42.17-1.28,5.67-2.25,11.3-2.87,16.43-.58,2.71-1.19,5.3-1.85,7.63,0,0-.15.38-.3,1.08-.85,2.87-1.8,5.39-2.82,7.71Zm37.05-138.65c.95-2.42,1.73-4.21,2.05-4.47h0s2.26-1.5,2.26-1.5c-1.56,1.93-2.88,3.98-4.31,5.98Z"/>
          <g>
            <path class="cls-48" d="m433.16,403.81s-5.94,14.44-2.62,32.7c0,0-52.82,31.92-68.07,31.94-15.25.02,4.63-23.24,4.63-23.24,0,0,6.57-15.8,6-29.73l60.05-11.67Z"/>
            <path class="cls-49" d="m561.59,189.08c8.56,66.77-28.89,153.63-73.98,188.23-45.09,34.6-112.09,46.09-160.84,42.68-30.82-2.13-61.27-25.91-79.25-51.08-8.76-12.18-14.57-24.7-16.12-35.25-4.76-32.35,18.66-45.96,24.94-59.6,1.04-2.29,1.99-4.77,2.85-7.59.15-.68.3-1.06.3-1.06,4.09-13.97,6.39-34.65,10.14-65.15,4.64-37.54,22.39-72.39,60.21-95.95,83.27-51.86,223.2,17.99,231.76,84.76Z"/>
            <path class="cls-35" d="m561.59,189.08c8.56,66.77-28.89,153.63-73.98,188.23-45.09,34.6-112.09,46.09-160.84,42.68-30.82-2.13-61.27-25.91-79.25-51.08v-.1s26.69,18.3,54.16,23.56c27.42,5.32,90.01-.83,129.45-29.2,39.44-28.43,57.07-64.76,53.1-71.7-3.92-6.95-15.7-.69-15.7-.69,0,0-55.13,48.33-97.02,23.18-30.41-18.25-4.03-134.85,22.29-161.2,0,0,64.69,29.48,77.32,72.1,0,0,14.85-25.52,6.18-58.56-8.68-33.04-42.68-49.19-80.68-46.6-37.95,2.64-53.48,15.24-53.48,15.24,0,0-36.41,3.78-46.4,17.76,0,0,14.39,35.96,19.45,58.91,5.11,22.99-9.15,65.97-14.44,71.52-5.33,5.56-26.47,12.23-38.25,9.54-10.31-2.35-5.65-21.49-4.31-26.21.15-.68.3-1.06.3-1.06,4.09-13.97,6.39-34.65,10.14-65.15,4.64-37.54,22.39-72.39,60.21-95.95,83.27-51.86,223.2,17.99,231.76,84.76Z"/>
            <path class="cls-67" d="m570.81,225.5v.1c-7.43,44.41-31.36,89.42-31.36,89.42-15.15.35-40.53,18.62-42.33,19.85,1.26-2.17,22.08-37.21,22.36-55.71.34-19.12-4.86-53.08-4.86-53.08l3.09-26.69c3.35-29.42-17.76-52.96-17.76-52.96-27.19-2.35-33.58-28.51-33.58-28.51,0,0-8.87-14.35-37.1-16.15-28.23-1.79-75.43,22.95-75.43,22.95-15.17.56-34.45-6.78-34.45-6.78-10.37,4.48-25.48,16.87-25.48,16.87-17.65,6.87-33.7,21.48-33.7,21.48,4.89-35.85,33.44-51.95,33.44-51.95-24.36-27.33-8.66-58.87-8.66-58.87,6.44,9.22,16.1,11.61,16.1,11.61-5.18-17.9,1.42-36.66,1.42-36.66,41.3,27.43,104.28,32.14,104.28,32.14,24.4-1.05,50.42,17.14,50.42,17.14,1.04-18.81,15.51-32.79,15.51-32.79-4.38,25.2,16.38,65.36,32.29,75.73,15.96,10.36,56.22,19.28,66.4,71.17,2.49,12.75,1.86,27.18-.58,41.67Z"/>
            <path class="cls-56" d="m393.83,152.76s-1.86,12.98,4.74,25.15c0,0,34.5,10.18,49.85,22.32,15.35,12.15,22.69,24.62,22.69,24.62,0,0-16.13-51.01-77.28-72.09Z"/>
            <path class="cls-4" d="m290.02,142.76s17.71,19.94,25.68,65.47c0,0-18.58-52.12-38.3-40.38,0,0,2.21-21.29,12.62-25.09Z"/>
            <path class="cls-39" d="m365.4,258.18s6.36-36.02,35.76-40.67c23.82-3.77,47.21,18.42,50.03,58.5l-85.79-17.84Z"/>
            <path class="cls-42" d="m327.31,305.1s-11.88-20.66-21.41-20.25c-9.53.41-27.91,14.57-27.91,14.57,0,0,6.77,8.01,20.25,9.96,13.47,1.95,29.08-4.28,29.08-4.28Z"/>
            <path class="cls-46" d="m364.64,296.02c-7.46-21.15,1.4-62.49,34.15-70.27,32.75-7.79,58.82,36.07,51.15,63.63-7.39,26.53-75.66,34.02-85.3,6.65Z"/>
            <path class="cls-11" d="m277.99,299.42s7.66,6.76,24.45,7.24c20.77.6,24.87-1.56,24.87-1.56,0,0,6.09,6.07-2.24,9.98-5.52,2.59-22.61,13.5-38.6,8.33-7.21-2.33-13.09-18.74-8.49-23.99Z"/>
            <path class="cls-45" d="m260.55,270.31c.23,10,3.25,18.5,11.17,19.04,7.92.54,27.19-3.79,34.73-23.11,4.99-12.78-2.93-58.77-20.27-61.42-14.77-2.26-26.08,45.92-25.63,65.49Z"/>
            <g class="cls-58">
              <path class="cls-66" d="m404.98,277.69c-3.83,23.49-17.87,40.74-31.36,38.54-13.49-2.2-21.32-23.02-17.49-46.51,3.83-23.49,17.87-40.74,31.36-38.54,13.49,2.2,21.32,23.02,17.49,46.51Z"/>
              <path class="cls-59" d="m396.14,275.15c-2.79,17.12-13.03,29.69-22.86,28.09-9.83-1.6-15.54-16.78-12.74-33.89,2.79-17.12,13.02-29.69,22.85-28.09,9.83,1.6,15.54,16.78,12.74,33.89Z"/>
            </g>
            <g class="cls-52">
              <path class="cls-63" d="m285.77,261.16c-4.01,20.23-13.4,35.41-20.98,33.91-7.58-1.5-10.47-19.12-6.46-39.35,4.01-20.23,13.4-35.41,20.98-33.91,7.58,1.5,10.47,19.12,6.46,39.35Z"/>
              <path class="cls-59" d="m278.22,259.56c-2.92,14.74-9.77,25.81-15.29,24.71-5.52-1.09-7.63-13.93-4.71-28.68,2.92-14.74,9.77-25.81,15.29-24.71,5.52,1.09,7.63,13.93,4.71,28.68Z"/>
            </g>
            <path class="cls-21" d="m314.5,243.24s-6.69,32.1-16.17,40.4c-7.87,6.9-15.73,9.2-21.23,12.13-5.5,2.93-3.17,21.65,9.36,27.64,0,0-14.68-14.23-8.49-23.99,2.65-4.17,19.04-6.91,25.39-16.63,8.96-13.71,11.13-39.55,11.13-39.55Z"/>
            <path class="cls-28" d="m305.38,320.78s-9.02-9.38,18.9-6.28c0,0-4.06.87-10.37,2.61-6.08,1.68-8.53,3.67-8.53,3.67Z"/>
            <path class="cls-54" d="m281.28,339.64s4.75,3.75,11.51,5.08c6.76,1.34,37.84-1.97,51.56-3.77,13.72-1.81,23.24-6.17,23.24-6.17l2.38,2.41s-20.33,12.73-41.78,18.64c-21.45,5.91-31.83,4.47-36.05,3.19-4.21-1.29-10.28-15.43-10.28-15.43l-.58-3.94Z"/>
            <path class="cls-41" d="m287.69,343.18s3.97,12.17,8.71,14.57c4.74,2.4,29.18-.37,44.84-7.66l11.76-10.69s-51.78,9.34-65.31,3.78Z"/>
            <path class="cls-36" d="m361.54,330.37l4.77-3.24s8.21,7.21,9.72,17.48c0,0-10.95-12.85-14.49-14.23Z"/>
            <path class="cls-33" d="m423.26,260.13c.47,3.23-1.75,6.22-4.98,6.7-3.23.47-6.22-1.75-6.7-4.98-.47-3.22,1.76-6.22,4.98-6.7s6.22,1.76,6.7,4.98Z"/>
            <path class="cls-33" d="m297.5,232.76c.4,2.75-1.49,5.3-4.24,5.7-2.75.4-5.3-1.49-5.7-4.24-.4-2.75,1.49-5.3,4.24-5.7,2.75-.4,5.3,1.49,5.7,4.24Z"/>
            <path class="cls-39" d="m269.99,222.92s5.81-20.39,17.82-21.52c12-1.13,23.74,40.09,19.65,60.73,0,0-2.4-41.88-23.75-51.45,0,0-7.45.12-13.72,12.23Z"/>
            <path class="cls-51" d="m472.68,36.93s-19.15,28.24-7.36,68.03c11.79,39.79,48.99,19.06,48.99,19.06,0,0-34-20.84-41.63-87.08Z"/>
            <path class="cls-65" d="m302.48,20.45s-3.5,40.09,18.58,58.45c22.08,18.36,77.36-27.24,77.36-27.24,0,0-52.46-6.05-95.94-31.22Z"/>
            <path class="cls-34" d="m293.64,104.37l25.73,13.58-23.52,15.33s-9.56-8.57-13.12-20.43c0,0,6.76-6.49,10.92-8.48Z"/>
            <path class="cls-38" d="m284.98,45.48s4.68,19.03,30.79,40.91c26.11,21.89,38.07,38.35,38.07,38.35,0,0-45.59-.08-63.38-24.31-17.8-24.23-5.48-54.96-5.48-54.96Z"/>
            <path class="cls-37" d="m570.81,225.5v.1c-7.43,44.41-31.36,89.42-31.36,89.42-15.15.35-40.53,18.62-42.33,19.85,1.26-2.17,22.08-37.21,22.36-55.71.34-19.12-4.86-53.08-4.86-53.08l3.09-26.69c3.35-29.42-17.76-52.96-17.76-52.96,0,0,24.47,1.84,37.33-1.68,0,0-14.11,11.58-21.39,12.91,0,0,3.13,32.99,18.23,57.92,15.1,24.88,36.69,9.9,36.69,9.9Z"/>
            <g>
              <path class="cls-50" d="m507.21,326.97s28.76-19.13,57.53-10.38c28.78,8.75,10.09,65.71-30.74,81.96-40.83,16.25-55.46-8.45-54.92-18.92.54-10.47,28.12-52.66,28.12-52.66Z"/>
              <path class="cls-13" d="m498.59,353.14s25.52-19.25,47.08-15.29c21.56,3.96,8.41,38.9,8.41,38.9,0,0-1.23-5.14-8.85-6.29,0,0-12.61,12.61-34.2,17.36,0,0,27.22-11.51,31.63-23.44,0,0-20.24,21.27-37.54,15.19-17.3-6.08-6.53-26.42-6.53-26.42Z"/>
              <path class="cls-21" d="m495.85,370.31s22.44,3.73,30.42-5.14c7.99-8.88,2.05-18.59,2.05-18.59,0,0-18.05-.4-27.72,9.35,0,0-5.51,7.24-4.76,14.38Z"/>
            </g>
            <path class="cls-62" d="m448.2,324.53c.59,4.02-2.19,7.75-6.2,8.34-4.01.59-7.75-2.18-8.34-6.2-.59-4.01,2.19-7.75,6.2-8.34,4.01-.59,7.75,2.19,8.34,6.2Z"/>
            <path class="cls-57" d="m356.36,126.07s-2.55-81.4,27.21-95.1c29.76-13.7,73.6,38.74,73.6,38.74,0,0-.77,19.17,2.56,31.82,0,0-32.8-21.35-62.63-16.79-29.83,4.56-40.74,41.33-40.74,41.33Z"/>
          </g>
          <path class="cls-47" d="m379.94,32.95c-6.12,5.41-10.04,11.31-15.18,23.05-4.86-6.19-2.15-16.69-2.15-16.69l17.33-6.36Z"/>
          <polygon class="cls-47" points="293.64 104.35 298.49 108.63 286.65 103.55 293.64 104.35"/>
          <path class="cls-47" d="m461.04,54.09c-3.65,9.47-3.86,20.76-2.03,33.12-2.14.1-8.48-25.27-8.48-25.27l10.51-7.85Z"/>
          <path class="cls-14" d="m168.21,328.61c.27.9.39,1.74.67,2.64,3.34,11.76,11.63,26.17,23.84,41,0,0,.66.96,2.11,2.49,22.92,27.14,58.44,55.55,99.46,73.14,66.49,28.62,170.86,50.22,249.78,21.72,78.84-28.49,142.57-158.83,136.76-207.62-1.57-13.07-4.05-30.53-8.86-50.17-13-53.48-42.7-122.86-114.47-162.15C503.34,19.99,423.25,5.43,359,6.36c-20.09.32-38.5,2.16-54.24,5.47-10.67,2.22-20.08,5.13-27.77,8.81l-3.21,1.61c-2.24,1.11-4.24,2.35-6.09,3.67-100.77,70.04-112.92,240.9-99.5,302.69Zm27.02-174.67c14.83-45.7,39.64-89.22,78.86-116.57,1.78-1.16,3.63-2.4,5.72-3.42l3.06-1.53c7.24-3.42,15.98-6.15,26.04-8.26,14.75-3.11,32.02-4.82,50.81-5.07,37.18,1.96,87.29,11.83,133.56,44.29,69.81,49.02,76.55,117.95,73.98,129.09-2.2,9.44-29.37,34.81-52.29,97.65-4.1,11.21-8.07,23.57-11.74,37.28l-21.86-2.88s-42.24,87.67-156.62,79.87c-92.98-6.42-132.88-61.15-143.34-80.65-.27-.83-.39-1.66-.58-2.42-7.44-33.95-6.54-102.88,14.39-167.38Z"/>
          <path class="cls-29" d="m180.81,321.3c.21.82.36,1.64.62,2.45,10.47,19.51,50.36,74.25,143.35,80.63,114.37,7.84,156.56-79.83,156.56-79.83l21.89,2.88c3.67-13.71,7.63-26.1,11.76-37.29,22.9-62.86,50.05-88.23,52.23-97.66,2.59-11.11-4.13-80.1-73.92-129.09-46.28-32.45-96.45-42.3-133.59-44.3-18.81.28-36.11,1.98-50.86,5.09-10,2.1-18.8,4.86-26.02,8.26l-3.01,1.53c-2.1,1.04-3.97,2.24-5.73,3.43-39.2,27.3-64.06,70.83-78.88,116.55-20.94,64.52-21.79,133.45-14.4,167.36Z"/>
          <path class="cls-1" d="m180.81,321.3c.21.82.36,1.64.62,2.45,10.47,19.51,50.36,74.25,143.35,80.63,114.37,7.84,156.56-79.83,156.56-79.83l21.89,2.88c3.67-13.71,7.63-26.1,11.76-37.29,22.9-62.86,50.05-88.23,52.23-97.66,2.59-11.11-4.13-80.1-73.92-129.09-46.28-32.45-96.45-42.3-133.59-44.3-18.81.28-36.11,1.98-50.86,5.09-10,2.1-18.8,4.86-26.02,8.26l-3.01,1.53c-2.1,1.04-3.97,2.24-5.73,3.43-39.2,27.3-64.06,70.83-78.88,116.55-20.94,64.52-21.79,133.45-14.4,167.36Z"/>
          <path class="cls-25" d="m194.84,374.76c22.9,27.1,58.46,55.51,99.42,73.17,66.52,28.62,170.88,50.16,249.78,21.67,78.84-28.49,142.57-158.8,136.77-207.59-1.54-13.05-4.06-30.52-8.87-50.17-6.48-11.92-16.34-20.66-31.18-22.15-54.53-5.45-115.42,159.33-115.42,159.33l-24.65-9.18s-43.31,92.16-155.01,95.53c-97.72,2.96-140.76-49.62-150.84-60.59Z"/>
          <path class="cls-23" d="m581.27,448.07c-31.21,14.81-73.68-7.13-54.24-94.73,19.6-87.9,91.96-157.68,91.96-157.68-73.61-12.79-107,139.48-107,139.48-.49,6.73-.82,13.05-.93,19l-.03.65c-3.13,126.45,64.32,96.17,70.24,93.29Z"/>
          <path class="cls-12" d="m680.85,275.42c1.07-31.51-11.52-56.68-28.46-61.03-16.94-4.35-83.36,57.9-98.25,145.79-14.88,87.9,47.07,76.06,67.21,46.86l11.43-15.76s-56.72,41.84-63.21-16.27c-7.42-66.34,63.27-128.06,85.7-110.6,22.43,17.46,10.42,66.17,10.42,66.17,0,0,14.46-34.28,15.16-55.17Z"/>
          <path class="cls-33" d="m530.84,181.05s7.02-25.45,6.6-33.8c0,0-12.1-18.91-30.81-30.53l-27.95,40.45s41.41,16.75,52.16,23.88Z"/>
          <path class="cls-33" d="m457.43,321.52s-11.8,19.98-25.39,29.92l-10.44-10.71s15.25-16.63,22.88-27.15l12.96,7.94Z"/>
          <path class="cls-30" d="m168.22,328.61c.22.87.38,1.75.66,2.61,11.16,20.8,53.7,79.17,152.85,85.96,121.94,8.36,166.92-85.11,166.92-85.11l23.34,3.07c3.92-14.61,8.14-27.83,12.54-39.76l-.06-.06S392.05,57.92,183.58,150.17c-22.33,68.8-23.23,142.29-15.36,178.44Z"/>
          <path class="cls-2" d="m310.89,133.18c-4.69,14.17,17.1,34.13,48.66,44.57,31.56,10.44,60.95,7.42,65.64-6.76,4.69-14.17-17.1-34.13-48.66-44.57-31.56-10.44-60.95-7.42-65.64,6.76Z"/>
          <path class="cls-3" d="m164.55,348.52c9.21,1.45,25.73-54.77,36.91-125.58,11.18-70.81,12.77-129.39,3.56-130.85-9.21-1.45-25.73,54.77-36.91,125.58-11.18,70.81-12.77,129.39-3.56,130.84Z"/>
          <path class="cls-33" d="m536.2,74.92s-57.79-44.45-100-56.03c0,0,153.81,26.43,100,56.03Z"/>
          <polygon class="cls-33" points="576.01 247.69 553.33 233.38 538.94 258.48 561.49 270.18 576.01 247.69"/>
        </g>
        <polygon class="cls-10" points="274.88 623.15 298.38 566.38 281.6 624.3 270.69 649.97 274.88 623.15"/>
        <g class="cls-60">
          <path class="cls-5" d="m945.7,885.92c-17.14-66.42-84.66-132.97-218.59-101.85-81.32,18.9-139.82,21.15-181.58,16.03-7.5-22.71-12.44-37.61-12.44-37.61,0,0-4.5-9.32-12.15-34.4.65.6,1.31,1.19,1.97,1.77.06.06.13.15.2.19,14.24,14.45,32.31,21.59,32.31,21.59,0-.02-.01-.02-.01-.02,11.31,5.06,23.18,7.86,35.47,7.82,21.62-.09,40.13-5.31,55.32-12.35l.64-.16c0-.05-.02-.09-.03-.15,24.54-11.54,40.29-27.78,46.11-34.51.31-.39.62-.74.87-1.03.26-.4.52-.67.71-.9.62-.76.93-1.14.93-1.14,0,0,17.45-5.33,19.59-22.89,8.86-1.32,16.71-3.38,23.71-5.96,10.4-3.62,21.08-9.02,29.21-17.08,19.54-17.07,24.19-36.72,24.19-36.72-25.43-22.21-61.97-.19-61.97-.19l-.66-13.41c-10.81,2.82-18.33,9.27-23.43,15.89-.15-.55-.25-.88-.25-.88l-10-3.65s-2.33-14.83-16.35-18.82l-.19-.66c-.09.02-.44.14-1.01.36-14.71-3.51-47.67-1.54-86.5-23.76-3.33-1.89-6.77-3.98-10.31-6.21l-26.86-18.85c-.2.04-.38.08-.58.11-3.89-2.83-7.76-5.71-11.57-8.61-6.54-5.06-18.13-14.68-28.1-23.01-9.97-8.34-18.31-15.41-18.31-15.41-1.78-1.65-3.36-3.16-4.7-4.49t-.01-.02c-2.22-2.23-3.77-3.97-4.55-5.12-6.31-9.36-17.68-16.15-17.68-16.15h-.12s-5.46-.69-5.46-.69c28.07-.35,55.59-4.34,80.56-13.36,27.28-9.86,52.73-31.9,74.14-58.54.91-1.06,1.78-2.16,2.58-3.27,25.79-33.03,45.33-72.47,54.57-104.44,2.7-9.07,5-18.9,5.44-26.95.49-5.34.54-10.19.02-14.42-.28-2.43-.62-5.05-.99-7.77,0-.02,0-.05,0-.07-.2-1.53-.42-3.11-.64-4.72-.1-.58-.18-1.15-.27-1.75-.21-1.46-.43-2.95-.69-4.47-.05-.41-.13-.81-.2-1.23-1.46-9.16-3.4-19.31-6.05-30.17-13-53.48-42.71-122.86-114.48-162.14-.19-.1-.39-.21-.58-.31-3.11-1.96-6.3-3.88-9.6-5.74C493.24,13.45,413.16-1.14,348.85.07c-20.09.41-38.53,2.38-54.29,5.84-10.67,2.31-20.11,5.34-27.82,9.13l-3.21,1.67c-2.24,1.13-4.25,2.43-6.11,3.78-101.12,72.16-113.98,247.28-100.81,310.53.28.93.38,1.78.67,2.71,3.29,12.03,11.52,26.77,23.68,41.92,0,0,.66.97,2.12,2.55,22.82,27.7,58.25,56.66,99.22,74.52,7.6,3.33,15.71,6.55,24.2,9.61-6.3.43-13.19,1.22-20.11,2.62-24.56,4.96-101.05-3.44-135.71-24.15-34.67-20.71-44.3-37.32-53.67-39-5.51-.96-11.79,3.2-16.07,6.85-3.53-13.86-9.98-29.76-17.01-38.68l-7.22,7.44s-6.75-15.07-42.94-24.24c0,0-18.82-.9-12.41,43.33,3.71,25.63,17.5,45.92,30.1,59.6,6.45,7.05,12.56,12.33,16.89,15.74-2,10-.05,18.49,9.82,22.04v.02c1.04,20.83,17.8,48.67,40.88,73.59l.29.36s.02-.01.04-.01c9.94,10.69,21.04,20.86,32.57,29.67,0,0,4.85,3.94,11.68,8.63,6.81,4.69,15.62,10.12,23.49,13.11h.02c8.63,3.98,17.07,6.8,25.01,8.1,2.42.42,4.9.63,7.31.77,2.11.09,4.2.09,6.3-.01.02,0,.04-.01.05,0,27.25-1.35,53.44-18.71,71.42-34.01-.72,6.04-1.33,12.27-1.77,18.78-.19,3.35-.4,6.74-.55,10.26,0,0-35.62,69.7-47.89,152.94l-.03.17-9.8,43.59c-.87,2.26-1.79,4.7-2.77,7.31-16.71,44.62-62.88,130.69-64.22,170.11-.93,26.94,18.45,62.7,37.68,91.32-13.76,2.92-19.53,8.32-19.63,8.41v.02c.1.19,4.1,7.11,12.33,16.11,8.21,9,20.63,20.07,37.58,28.57,0,0-36.29,6.04-42.85,44.85l107.09-38.13-3.05-12.78,8.9-29.55s-.03,0-.07,0c.02-.01.04-.03.04-.03-1.38-.58-2.68-1.1-4.02-1.66,5.45-18.88,13.27-44.31,22.77-70.61l13.37-34.66c3.57-8.58,7.28-16.99,11.11-25.03l.2.03.11-.67c4.55-9.52,9.28-18.46,14.14-26.58l2.94-4.77c.5-.78.99-1.59,1.48-2.35l35.02,6.27s0-.02,0-.03l2.79.5v.02s14.14,23.16,30.23,49.9c-.56,2.2-.85,3.47-.86,3.54l1.34.28c0-.05.17-.81.51-2.18,10.15,16.87,20.97,34.99,29.46,49.53.03.04,6.13,11.98,13.72,24.21,1.91,3.34,4.37,7.02,7.24,10.9,1.99,2.77,3.98,5.34,5.91,7.54,10.69,13.01,24.99,27.45,39.37,39.82-1.88,1.88-3.77,3.84-5.65,5.93,0,0,2.25,1.87,6.5,4.11l48.16,30.77.66,13.06s.06.15.18.38c2.37,5.45,30.13,66.94,75.56,63.4h.09s4.56-46.02-38.66-82.45l11.57-65.51s0,.02-.02.01c0-.02,0-.03,0-.03,0,0-1.6-.5-4.45-1.06.46-3.15.92-6.34,1.37-9.53v-.02c1.56-10.83,2.96-21.68,3.98-31.36.19-1.16,3.53-21.73.64-33.64-3.49-16.73-17.53-62.72-33.03-111.56,10.29,4.33,20.8,9.88,31.33,17.01,20.92,14.17,40.33,33.05,59.11,51.32,42.32,41.18,85.88,83.53,151.73,80.23,11.8-.58,24.31-2.65,37.67-6.42,73.36-20.83,100.69-103.84,83.93-168.78Zm-88.39,153.03c-78.81,22.36-124.81-22.39-173.53-69.78-19.29-18.76-39.23-38.16-61.35-53.13-15.91-10.76-31.75-18.32-46.9-23.52-4.61-14.41-9.25-28.77-13.68-42.42.04-.01.07-.02.09-.04l-.3-.61c-3.72-11.45-7.29-22.39-10.56-32.38,43.32,4.25,101.62,1.08,179.74-17.06,122.32-28.41,183.02,27.85,199.03,89.98,14.84,57.53-8.67,130.82-72.55,148.95Z"/>
        </g>
      </g>
    </g>
  </g>
</svg>