<svg xmlns="http://www.w3.org/2000/svg" version="1.1" xmlns:xlink="http://www.w3.org/1999/xlink" xmlns:svgjs="http://svgjs.com/svgjs" width="512" height="512" x="0" y="0" viewBox="0 0 512 512" style="enable-background:new 0 0 512 512" xml:space="preserve" class=""><g><path fill="#ff5959" d="m474.877 163.128-84.216-41.789-41.789-84.216C396.02 14.246 447.811 1.638 512 0c-1.638 64.19-14.246 115.98-37.123 163.128z" data-original="#ff5959" class=""></path><path fill="#e63a57" d="M474.877 163.128C497.754 115.98 510.362 64.19 512 0L390.661 121.339z" data-original="#e63a57" class=""></path><path fill="#ff5959" d="M104.283 216.798 83.07 195.585 195.154 83.501l100.545 25.284-15.268 18.334c-23.782 28.505-47.046 68.218-63.857 108.977l-8.587 20.768-40.065-40.065c-17.546-17.547-46.093-17.547-63.639-.001z" data-original="#ff5959" class=""></path><path fill="#e63a57" d="m316.415 428.93-21.213-21.213c17.546-17.546 17.546-46.093 0-63.64l-40.065-40.065 20.768-8.587c40.759-16.811 80.471-40.075 108.977-63.857l18.334-15.268L428.5 316.845z" data-original="#e63a57" class=""></path><path fill="#f9f4f3" d="M474.877 163.128 348.872 37.123c-26.092 12.515-52.185 29.698-74.883 52.396-35.15 35.15-66.34 88.892-85.065 135.128-20.89 49.518-21.337 71.525-22.274 75.731l44.972 44.972c3.996-.89 26.262-1.404 75.731-22.274 45.727-18.519 99.488-49.425 135.128-85.065 22.698-22.698 39.881-48.791 52.396-74.883z" data-original="#f9f4f3" class=""></path><path fill="#ffea80" d="M0 512c10.922-33.41 55.599-161.665 83.07-189.136 29.241-29.241 76.815-29.251 106.066 0s29.241 76.825 0 106.066C161.636 456.431 30.485 502.035 0 512z" data-original="#ffea80" class=""></path><path fill="#d9c4ad" d="M411.874 100.126 189.136 322.864l22.486 22.486c3.997-.889 26.261-1.405 75.731-22.274 45.727-18.519 99.489-49.426 135.128-85.065 22.698-22.698 39.881-48.791 52.396-74.883z" data-original="#d9c4ad" class=""></path><path fill="#ffcc66" d="M189.136 428.93c29.241-29.241 29.251-76.815 0-106.066L0 512c30.485-9.966 161.636-55.57 189.136-83.07z" data-original="#ffcc66" class=""></path><path fill="#66ccff" d="M316.415 195.585c-17.546-17.546-17.546-46.093 0-63.64s46.093-17.546 63.64 0c17.546 17.546 17.546 46.093 0 63.64-17.547 17.547-46.094 17.547-63.64 0z" data-original="#66ccff" class=""></path><path fill="#59abff" d="M380.055 195.585c17.546-17.546 17.546-46.093 0-63.64l-63.64 63.64c17.546 17.547 46.093 17.547 63.64 0z" data-original="#59abff" class=""></path></g></svg>