<svg xmlns="http://www.w3.org/2000/svg" version="1.1" xmlns:xlink="http://www.w3.org/1999/xlink" xmlns:svgjs="http://svgjs.com/svgjs" width="512" height="512" x="0" y="0" viewBox="0 0 512 512" style="enable-background:new 0 0 512 512" xml:space="preserve" class=""><g><g fill-rule="evenodd" clip-rule="evenodd"><path fill="#b4c2d9" d="M458.574 501.26H243.424c-29.402 0-53.426-24.053-53.426-53.426V133.435c0-29.373 24.024-53.426 53.426-53.426H458.574c29.373 0 53.426 24.053 53.426 53.426v314.399c0 29.373-24.053 53.426-53.426 53.426z" data-original="#b4c2d9" class=""></path><path fill="#a7b4c9" d="M458.574 501.26H243.424c-29.402 0-53.426-24.053-53.426-53.426V133.435c0-20.353 11.535-38.161 28.419-47.153-6.331 8.76-10.061 19.514-10.061 31.078v314.4c0 29.373 24.024 53.426 53.426 53.426H476.932c9.02 0 17.52-2.284 25.007-6.274-9.714 13.501-25.556 22.348-43.365 22.348z" data-original="#a7b4c9" class=""></path><path fill="#e8f0fe" d="M350.305 10.74H207.662L81.729 136.673v271.843c0 12.923 10.523 23.446 23.446 23.446h298.527V64.166c0-29.373-24.024-53.426-53.397-53.426z" data-original="#e8f0fe" class=""></path><path fill="#dce4f2" d="m96.242 122.16-14.513 14.513v271.843c0 12.923 10.523 23.446 23.446 23.446h298.527v-16.045H119.717c-12.923 0-23.475-10.552-23.475-23.475z" data-original="#dce4f2" class=""></path><path fill="#b4c2d9" d="M207.662 10.74 81.729 136.673h112.345c7.488 0 13.588-6.1 13.588-13.588z" data-original="#b4c2d9" class=""></path><path fill="#584cb5" d="M10.379 192.441h257.012c5.724 0 10.379 4.655 10.379 10.379v94.276c0 5.724-4.655 10.408-10.379 10.408H10.379C4.683 307.504 0 302.82 0 297.096V202.82c0-5.725 4.683-10.379 10.379-10.379z" data-original="#584cb5" class=""></path></g><path fill="#d4e1f7" d="M73.49 212.606H54.091a5.102 5.102 0 0 0-5.102 5.102v64.527a5.102 5.102 0 0 0 10.204 0v-19.847H73.49c13.495 0 24.472-10.978 24.472-24.473v-.838c0-13.493-10.978-24.471-24.472-24.471zm14.267 25.31c0 7.867-6.4 14.268-14.267 14.268H59.193V222.81H73.49c7.867 0 14.267 6.401 14.267 14.267zm50.549-25.31h-19.399a5.102 5.102 0 0 0-5.102 5.102v64.528a5.102 5.102 0 0 0 5.102 5.102h19.399c13.495 0 24.472-10.991 24.472-24.501v-25.759c.001-13.494-10.977-24.472-24.472-24.472zm14.268 50.231c0 7.883-6.4 14.296-14.267 14.296H124.01V222.81h14.296c7.867 0 14.267 6.401 14.267 14.267v25.76zm37.438-40.026v18.503h28.868a5.102 5.102 0 1 1 0 10.204h-28.868v30.718a5.102 5.102 0 0 1-10.204 0v-64.528a5.102 5.102 0 0 1 5.102-5.102h38.769a5.102 5.102 0 1 1 0 10.204h-33.667z" data-original="#d4e1f7" class=""></path><path fill="#8170f4" fill-rule="evenodd" d="M369.646 197.211h68.141v124.487h42.238l-38.161 55.132-38.162 55.132-38.132-55.132-38.162-55.132h42.238z" clip-rule="evenodd" data-original="#8170f4" class=""></path><path fill="#584cb5" fill-rule="evenodd" d="M369.646 197.211h34.056v234.751L365.57 376.83l-38.162-55.132h42.238z" clip-rule="evenodd" data-original="#584cb5" class=""></path></g></svg>
