<svg xmlns="http://www.w3.org/2000/svg" version="1.1" xmlns:xlink="http://www.w3.org/1999/xlink" xmlns:svgjs="http://svgjs.com/svgjs" width="512" height="512" x="0" y="0" viewBox="0 0 512 512" style="enable-background:new 0 0 512 512" xml:space="preserve" class=""><g><path d="M511.719 14.418c-.422-7.633-6.52-13.73-14.153-14.148-.199-.012-4.996-.27-13.273-.27-22.84 0-68.906 1.914-120.793 14.742C297.922 30.953 244.844 59 205.738 98.105c-17.02 17.02-31.922 36.641-44.66 58.747l-17.082-17.079a14.995 14.995 0 0 0-17.027-2.949L8.579 192.898a15.01 15.01 0 0 0-8.571 14.075l6.234 180.699a14.998 14.998 0 0 0 9.488 13.437 14.992 14.992 0 0 0 16.105-3.348l101.552-101.55 30.59 30.586-101.555 101.55c-5.856 5.86-5.856 15.356 0 21.216a14.955 14.955 0 0 0 10.605 4.394c3.84 0 7.68-1.465 10.61-4.395l101.55-101.554 30.586 30.586-101.546 101.554a14.998 14.998 0 0 0 10.085 25.598l180.7 6.23a15.002 15.002 0 0 0 14.074-8.57l56.082-118.386a15.007 15.007 0 0 0-2.95-17.032l-17.085-17.078c22.11-12.742 41.73-27.644 58.746-44.66 24.879-24.879 45.504-55.82 61.297-91.969 12.496-28.594 22.02-60.508 28.3-94.851 10.66-58.274 8.344-103.13 8.243-105.012zM30.332 215.789l99.926-47.332 16.422 16.426c-11.368 24.953-20.383 52.535-27.008 82.617l-84.64 84.64zm313.2 165.941-47.337 99.926-136.351-4.703 84.636-84.64c30.086-6.625 57.668-15.641 82.622-27.008zm130.3-266.972c-9.195 49.851-30.746 119.86-81.164 170.277-18.95 18.95-41.656 35.024-67.922 48.145-.832.32-1.633.726-2.41 1.203-23.973 11.715-50.867 21.004-80.547 27.8l-35.387-35.386 51.703-51.703c5.86-5.86 5.86-15.356 0-21.215-5.855-5.86-15.355-5.856-21.21 0l-51.707 51.703-35.387-35.387c6.793-29.675 16.086-56.566 27.8-80.539.477-.777.883-1.586 1.208-2.422 13.12-26.261 29.191-48.968 48.14-67.918 81.32-81.32 212.867-89.05 255.02-89.312-.114 17.121-1.426 48.406-8.137 84.754zm0 0" fill="#3f3f3f" data-original="#000000" class=""></path><path d="M353.426 217.621c15.773 0 30.605-6.144 41.765-17.3 23.024-23.028 23.024-60.497-.004-83.52-11.156-11.156-25.984-17.301-41.761-17.301-15.778 0-30.606 6.145-41.762 17.3-11.156 11.153-17.3 25.985-17.3 41.763s6.144 30.605 17.3 41.761c11.156 11.153 25.984 17.297 41.762 17.297zm-20.547-79.61c5.488-5.488 12.785-8.511 20.547-8.511s15.058 3.023 20.55 8.512c11.329 11.328 11.329 29.765 0 41.097-5.488 5.489-12.789 8.512-20.55 8.512s-15.059-3.023-20.551-8.512c-5.488-5.488-8.512-12.785-8.512-20.547 0-7.765 3.024-15.062 8.516-20.55zm0 0" fill="#3f3f3f" data-original="#000000" class=""></path></g></svg>