<svg xmlns="http://www.w3.org/2000/svg" version="1.1" xmlns:xlink="http://www.w3.org/1999/xlink" xmlns:svgjs="http://svgjs.com/svgjs" width="512" height="512" x="0" y="0" viewBox="0 0 512 512" style="enable-background:new 0 0 512 512" xml:space="preserve" class=""><g><linearGradient id="a" x1="89.419" x2="432.071" y1="91.379" y2="434.031" gradientTransform="matrix(1 0 0 -1 0 514)" gradientUnits="userSpaceOnUse"><stop offset="0" style="stop-color:#A5EBC8"></stop><stop offset=".05" style="stop-color:#A5EBC8"></stop><stop offset=".507" style="stop-color:#D05BE6"></stop><stop offset=".898" style="stop-color:#EDA769"></stop><stop offset="1" style="stop-color:#EFAD5F"></stop></linearGradient><path d="M156.9 444.3c-1.3 2.3-3.7 3.6-6.2 3.6-1.2 0-2.4-.3-3.5-.9-33.6-19.2-61.6-47-81.1-80.4-2-3.4-.8-7.7 2.6-9.7s7.7-.8 9.7 2.6c18.2 31.3 44.5 57.3 75.9 75.2 3.4 1.9 4.6 6.2 2.6 9.6zm291.6-97.7c-3.5-1.8-7.8-.4-9.5 3.1-27.1 52.9-75.6 91.4-133.1 105.7-3.8.9-6.1 4.8-5.2 8.6.8 3.2 3.7 5.4 6.9 5.4.6 0 1.1-.1 1.7-.2 61.4-15.3 113.3-56.5 142.3-113 1.8-3.5.4-7.8-3.1-9.6zm-58-255.4c-2.6 2.9-2.3 7.4.7 10 36.8 32.1 60.9 76.3 68.1 124.3.5 3.5 3.5 6 7 6 .3 0 .7 0 1-.1 3.9-.6 6.5-4.2 6-8.1-7.6-51.4-33.5-98.5-72.8-132.9-2.9-2.4-7.4-2.1-10 .8zM43.7 275h.4c3.9-.2 6.9-3.6 6.7-7.5-.2-3.8-.3-7.7-.3-11.5 0-113.3 92.2-205.5 205.5-205.5 3.7 0 7.5.1 11.2.3 3.9.2 7.2-2.8 7.5-6.7.2-3.9-2.8-7.2-6.7-7.5-4-.2-8-.3-12-.3-58.7 0-113.8 22.9-155.3 64.3-41.5 41.6-64.4 96.7-64.4 155.4 0 4.1.1 8.2.3 12.3.3 3.8 3.4 6.7 7.1 6.7zm465.6-31.5c-2.8-2.8-7.3-2.8-10 0l-60.7 60.7c-2.8 2.8-2.8 7.3 0 10 1.4 1.4 3.2 2.1 5 2.1s3.6-.7 5-2.1l60.7-60.7c2.7-2.8 2.7-7.2 0-10zm-388.8 71.2-15.1 15.1c-2.8 2.8-2.8 7.3 0 10 1.4 1.4 3.2 2.1 5 2.1s3.6-.7 5-2.1l15.1-15.1c2.8-2.8 2.8-7.3 0-10-2.7-2.7-7.2-2.7-10 0zm68.2-210.8L173.6 119c-2.8 2.8-2.8 7.3 0 10 1.4 1.4 3.2 2.1 5 2.1s3.6-.7 5-2.1l15.1-15.1c2.8-2.8 2.8-7.3 0-10s-7.3-2.7-10 0zm138 270.8-15.1 15.1c-2.8 2.8-2.8 7.3 0 10 1.4 1.4 3.2 2.1 5 2.1s3.6-.7 5-2.1l15.1-15.1c2.8-2.8 2.8-7.3 0-10s-7.2-2.8-10 0zm63.2-120.4-30.3 30.3c-2.8 2.8-2.8 7.3 0 10 1.4 1.4 3.2 2.1 5 2.1s3.6-.7 5-2.1l30.3-30.3c2.8-2.8 2.8-7.3 0-10s-7.2-2.8-10 0zM351.6 80.1c1.4 1.4 3.2 2.1 5 2.1s3.6-.7 5-2.1l30.3-30.3c2.8-2.8 2.8-7.3 0-10s-7.3-2.8-10 0L351.6 70c-2.8 2.8-2.8 7.3 0 10.1zM236.4 465.2l-30.3 30.3c-2.8 2.8-2.8 7.3 0 10 1.4 1.4 3.2 2.1 5 2.1s3.6-.7 5-2.1l30.3-30.3c2.8-2.8 2.8-7.3 0-10s-7.2-2.7-10 0zM133.3 159.4 103 189.7c-2.8 2.8-2.8 7.3 0 10 1.4 1.4 3.2 2.1 5 2.1s3.6-.7 5-2.1l30.3-30.3c2.8-2.8 2.8-7.3 0-10s-7.2-2.8-10 0zm170.6 200.1L170.7 492.9c-1.4 1.4-3.2 2.1-5 2.1s-3.6-.7-5-2.1c-2.8-2.8-2.8-7.3 0-10l103.9-104c-6.8 1.3-13.9 2-21.3 2-15.5 0-29.8-2.8-42.5-8.4-13.3-5.9-24-14.5-31.7-25.7-7.8-11.4-11.8-24.8-11.8-39.9 0-12.2 3.6-21.1 10.6-26.5 5.9-4.5 13.6-6.6 23.4-6.6 7 0 13.4 1.3 19 3.8 8.6 3.9 13.8 11.8 14.4 21.8.3 3.6 1.1 7.3 2.4 11.1.8 2.3 2.1 4.1 4.2 5.7.9.6 3.6 2.1 10.4 2.1 9.3 0 12.4-3.2 13.4-4.2 3.5-3.7 4.3-10.8 4.3-16.2V193.7h-16.8c-8.8 0-16.2-4.2-20.9-11.8-3.5-5.7-5.3-12.3-5.3-19.8 0-6.3 1.5-12.4 4.5-18 1.4-2.6 3.2-4.9 5.2-6.8L343.5 19.9c2.8-2.8 7.3-2.8 10 0s2.8 7.3 0 10L252.3 131.1h42.8c6.9 0 13.4 1.7 19.2 5.1 7.9 4.6 12.4 12.4 12.4 21.4v140.3c0 19.2-3.9 35.3-11.6 47.6-3.2 5.3-7 10-11.2 14zm-10.2-9.8 1.8-1.8.1-.1c2.8-2.9 5.3-6.2 7.6-9.8 6.3-10.1 9.5-23.5 9.5-40.1V157.6c0-4-1.8-7.1-5.4-9.2-3.6-2.1-7.6-3.2-12-3.2h-52.6c-2.8 0-5.1.8-6.8 2.4l-.5.5c-.1.1-.2.1-.2.2-.6.7-1.1 1.4-1.6 2.3-1.9 3.6-2.9 7.4-2.9 11.4 0 4.8 1.1 8.9 3.2 12.3 2.1 3.4 5.1 5.1 8.9 5.1h30.9v118.4c0 11.6-2.8 20.3-8.3 26s-13.4 8.6-23.6 8.6c-8.2 0-14.5-1.7-18.9-5s-7.5-7.5-9.2-12.5-2.8-9.9-3.2-14.7c-.2-4.8-2.2-8.1-6-9.8-3.8-1.7-8.2-2.6-13.2-2.6-6.6 0-11.6 1.3-14.9 3.8-3.3 2.5-5 7.6-5 15.2 0 12.2 3.1 22.8 9.3 31.9 6.2 9 14.8 15.9 25.7 20.7 10.9 4.8 23.2 7.2 36.8 7.2 12.8 0 24.4-2.3 34.9-6.8 5.8-2.4 11-5.8 15.6-10.1zM154.2 219.1c-2.8-2.8-7.3-2.8-10 0L20 343.2c-2.8 2.8-2.8 7.3 0 10 1.4 1.4 3.2 2.1 5 2.1s3.6-.7 5-2.1L154.2 229c2.8-2.7 2.8-7.2 0-9.9z" class="st0" style="fill:url(#a)" fill=""></path></g></svg>